<mxfile host="app.diagrams.net" agent="Mozilla/5.0 (Windows NT 10.0; Win64; x64) AppleWebKit/537.36 (KHTML, like Gecko) Chrome/133.0.0.0 Safari/537.36" version="26.0.16">
  <diagram id="C5RBs43oDa-KdzZeNtuy" name="Page-1">
    <mxGraphModel dx="1827" dy="505" grid="1" gridSize="10" guides="1" tooltips="1" connect="1" arrows="1" fold="1" page="1" pageScale="1" pageWidth="827" pageHeight="1169" math="0" shadow="0">
      <root>
        <mxCell id="WIyWlLk6GJQsqaUBKTNV-0" />
        <mxCell id="WIyWlLk6GJQsqaUBKTNV-1" parent="WIyWlLk6GJQsqaUBKTNV-0" />
        <mxCell id="Mr5uFOOeSS0G5EtgmH-h-1" value="" style="edgeStyle=orthogonalEdgeStyle;rounded=0;orthogonalLoop=1;jettySize=auto;html=1;" edge="1" parent="WIyWlLk6GJQsqaUBKTNV-1" source="WIyWlLk6GJQsqaUBKTNV-3" target="Mr5uFOOeSS0G5EtgmH-h-0">
          <mxGeometry relative="1" as="geometry" />
        </mxCell>
        <mxCell id="WIyWlLk6GJQsqaUBKTNV-3" value="Start" style="rounded=1;whiteSpace=wrap;html=1;fontSize=12;glass=0;strokeWidth=1;shadow=0;" parent="WIyWlLk6GJQsqaUBKTNV-1" vertex="1">
          <mxGeometry x="160" y="80" width="120" height="40" as="geometry" />
        </mxCell>
        <mxCell id="Mr5uFOOeSS0G5EtgmH-h-3" value="" style="edgeStyle=orthogonalEdgeStyle;rounded=0;orthogonalLoop=1;jettySize=auto;html=1;" edge="1" parent="WIyWlLk6GJQsqaUBKTNV-1" source="Mr5uFOOeSS0G5EtgmH-h-0" target="Mr5uFOOeSS0G5EtgmH-h-2">
          <mxGeometry relative="1" as="geometry" />
        </mxCell>
        <mxCell id="Mr5uFOOeSS0G5EtgmH-h-0" value="get inputSTR" style="rounded=0;whiteSpace=wrap;html=1;" vertex="1" parent="WIyWlLk6GJQsqaUBKTNV-1">
          <mxGeometry x="160" y="160" width="120" height="60" as="geometry" />
        </mxCell>
        <mxCell id="Mr5uFOOeSS0G5EtgmH-h-9" value="" style="edgeStyle=orthogonalEdgeStyle;rounded=0;orthogonalLoop=1;jettySize=auto;html=1;" edge="1" parent="WIyWlLk6GJQsqaUBKTNV-1" source="Mr5uFOOeSS0G5EtgmH-h-2" target="Mr5uFOOeSS0G5EtgmH-h-8">
          <mxGeometry relative="1" as="geometry" />
        </mxCell>
        <mxCell id="Mr5uFOOeSS0G5EtgmH-h-2" value="create returnDICT" style="rounded=0;whiteSpace=wrap;html=1;" vertex="1" parent="WIyWlLk6GJQsqaUBKTNV-1">
          <mxGeometry x="160" y="260" width="120" height="60" as="geometry" />
        </mxCell>
        <mxCell id="Mr5uFOOeSS0G5EtgmH-h-4" value="&lt;b&gt;&lt;font style=&quot;font-size: 17px;&quot;&gt;猫が魚を食べる。&lt;/font&gt;&lt;/b&gt;" style="text;whiteSpace=wrap;html=1;align=center;" vertex="1" parent="WIyWlLk6GJQsqaUBKTNV-1">
          <mxGeometry x="290" y="170" width="210" height="40" as="geometry" />
        </mxCell>
        <mxCell id="Mr5uFOOeSS0G5EtgmH-h-28" style="edgeStyle=orthogonalEdgeStyle;rounded=0;orthogonalLoop=1;jettySize=auto;html=1;entryX=0.5;entryY=0;entryDx=0;entryDy=0;" edge="1" parent="WIyWlLk6GJQsqaUBKTNV-1" source="Mr5uFOOeSS0G5EtgmH-h-5" target="Mr5uFOOeSS0G5EtgmH-h-13">
          <mxGeometry relative="1" as="geometry" />
        </mxCell>
        <mxCell id="Mr5uFOOeSS0G5EtgmH-h-5" value="&lt;span style=&quot;font-size: 17px;&quot;&gt;&lt;b&gt;returnDICT {&lt;/b&gt;&lt;/span&gt;&lt;div&gt;&lt;span style=&quot;font-size: 17px;&quot;&gt;&lt;b&gt;&quot;Subject&quot;:&amp;nbsp; &amp;nbsp; &amp;nbsp;,&lt;/b&gt;&lt;/span&gt;&lt;/div&gt;&lt;div&gt;&lt;span style=&quot;font-size: 17px;&quot;&gt;&lt;b&gt;&quot;Object&quot;:&amp;nbsp; &amp;nbsp; &amp;nbsp; &amp;nbsp;,&lt;br&gt;&lt;/b&gt;&lt;/span&gt;&lt;div&gt;&lt;span style=&quot;font-size: 17px;&quot;&gt;&lt;b&gt;&lt;span style=&quot;white-space: pre;&quot;&gt;&#x9;&lt;/span&gt;&lt;span style=&quot;white-space: pre;&quot;&gt;&#x9;&lt;/span&gt;&lt;span style=&quot;white-space: pre;&quot;&gt;&#x9;&lt;/span&gt;}&lt;/b&gt;&lt;/span&gt;&lt;/div&gt;&lt;/div&gt;" style="text;whiteSpace=wrap;html=1;align=center;" vertex="1" parent="WIyWlLk6GJQsqaUBKTNV-1">
          <mxGeometry x="474" y="260" width="210" height="80" as="geometry" />
        </mxCell>
        <mxCell id="Mr5uFOOeSS0G5EtgmH-h-11" value="" style="edgeStyle=orthogonalEdgeStyle;rounded=0;orthogonalLoop=1;jettySize=auto;html=1;" edge="1" parent="WIyWlLk6GJQsqaUBKTNV-1" source="Mr5uFOOeSS0G5EtgmH-h-8" target="Mr5uFOOeSS0G5EtgmH-h-10">
          <mxGeometry relative="1" as="geometry" />
        </mxCell>
        <mxCell id="Mr5uFOOeSS0G5EtgmH-h-12" value="yes" style="edgeLabel;html=1;align=center;verticalAlign=middle;resizable=0;points=[];" vertex="1" connectable="0" parent="Mr5uFOOeSS0G5EtgmH-h-11">
          <mxGeometry x="-0.2875" y="1" relative="1" as="geometry">
            <mxPoint as="offset" />
          </mxGeometry>
        </mxCell>
        <mxCell id="Mr5uFOOeSS0G5EtgmH-h-18" value="" style="edgeStyle=orthogonalEdgeStyle;rounded=0;orthogonalLoop=1;jettySize=auto;html=1;" edge="1" parent="WIyWlLk6GJQsqaUBKTNV-1" source="Mr5uFOOeSS0G5EtgmH-h-8" target="Mr5uFOOeSS0G5EtgmH-h-17">
          <mxGeometry relative="1" as="geometry" />
        </mxCell>
        <mxCell id="Mr5uFOOeSS0G5EtgmH-h-36" value="No" style="edgeLabel;html=1;align=center;verticalAlign=middle;resizable=0;points=[];" vertex="1" connectable="0" parent="Mr5uFOOeSS0G5EtgmH-h-18">
          <mxGeometry x="-0.1188" y="-2" relative="1" as="geometry">
            <mxPoint as="offset" />
          </mxGeometry>
        </mxCell>
        <mxCell id="Mr5uFOOeSS0G5EtgmH-h-8" value="iterate for&amp;nbsp;&lt;b&gt;&lt;font style=&quot;font-size: 17px;&quot;&gt;が&lt;/font&gt;&lt;/b&gt;" style="rhombus;whiteSpace=wrap;html=1;direction=south;" vertex="1" parent="WIyWlLk6GJQsqaUBKTNV-1">
          <mxGeometry x="150" y="360" width="140" height="130" as="geometry" />
        </mxCell>
        <mxCell id="Mr5uFOOeSS0G5EtgmH-h-26" value="" style="edgeStyle=orthogonalEdgeStyle;rounded=0;orthogonalLoop=1;jettySize=auto;html=1;" edge="1" parent="WIyWlLk6GJQsqaUBKTNV-1" source="Mr5uFOOeSS0G5EtgmH-h-10" target="Mr5uFOOeSS0G5EtgmH-h-24">
          <mxGeometry relative="1" as="geometry" />
        </mxCell>
        <mxCell id="Mr5uFOOeSS0G5EtgmH-h-10" value="&lt;font style=&quot;font-size: 19px;&quot;&gt;returnDICT[&quot;Subject&quot;] = inputSTR[0:&lt;b style=&quot;font-size: 12px;&quot;&gt;&lt;font style=&quot;font-size: 17px;&quot;&gt;が_idx&lt;/font&gt;&lt;/b&gt;]&lt;/font&gt;" style="rounded=0;whiteSpace=wrap;html=1;" vertex="1" parent="WIyWlLk6GJQsqaUBKTNV-1">
          <mxGeometry x="-8" y="540" width="456" height="65" as="geometry" />
        </mxCell>
        <mxCell id="Mr5uFOOeSS0G5EtgmH-h-33" style="edgeStyle=orthogonalEdgeStyle;rounded=0;orthogonalLoop=1;jettySize=auto;html=1;entryX=0.5;entryY=0;entryDx=0;entryDy=0;" edge="1" parent="WIyWlLk6GJQsqaUBKTNV-1" source="Mr5uFOOeSS0G5EtgmH-h-13" target="Mr5uFOOeSS0G5EtgmH-h-31">
          <mxGeometry relative="1" as="geometry" />
        </mxCell>
        <mxCell id="Mr5uFOOeSS0G5EtgmH-h-13" value="&lt;span style=&quot;font-size: 17px;&quot;&gt;&lt;b&gt;returnDICT {&lt;/b&gt;&lt;/span&gt;&lt;div&gt;&lt;span style=&quot;font-size: 17px;&quot;&gt;&lt;b&gt;&quot;Subject&quot;:&amp;nbsp; 貓&amp;nbsp; &amp;nbsp;,&lt;/b&gt;&lt;/span&gt;&lt;/div&gt;&lt;div&gt;&lt;span style=&quot;font-size: 17px;&quot;&gt;&lt;b&gt;&quot;Object&quot;:&amp;nbsp; &amp;nbsp; &amp;nbsp; &amp;nbsp;&lt;/b&gt;&lt;/span&gt;&lt;/div&gt;&lt;div&gt;&lt;b style=&quot;font-size: 17px; background-color: transparent; color: light-dark(rgb(0, 0, 0), rgb(255, 255, 255));&quot;&gt;&lt;span style=&quot;white-space: pre;&quot;&gt;&#x9;&lt;/span&gt;&lt;span style=&quot;white-space: pre;&quot;&gt;&#x9;&lt;/span&gt;&lt;span style=&quot;white-space: pre;&quot;&gt;&#x9;&lt;/span&gt;}&lt;/b&gt;&lt;/div&gt;" style="text;whiteSpace=wrap;html=1;align=center;" vertex="1" parent="WIyWlLk6GJQsqaUBKTNV-1">
          <mxGeometry x="474" y="520" width="210" height="80" as="geometry" />
        </mxCell>
        <mxCell id="Mr5uFOOeSS0G5EtgmH-h-17" value="&lt;font style=&quot;font-size: 19px;&quot;&gt;&lt;b&gt;?&lt;/b&gt;&lt;/font&gt;" style="rounded=0;whiteSpace=wrap;html=1;" vertex="1" parent="WIyWlLk6GJQsqaUBKTNV-1">
          <mxGeometry x="354" y="395" width="120" height="60" as="geometry" />
        </mxCell>
        <mxCell id="Mr5uFOOeSS0G5EtgmH-h-21" value="" style="edgeStyle=orthogonalEdgeStyle;rounded=0;orthogonalLoop=1;jettySize=auto;html=1;" edge="1" parent="WIyWlLk6GJQsqaUBKTNV-1" source="Mr5uFOOeSS0G5EtgmH-h-24" target="Mr5uFOOeSS0G5EtgmH-h-25">
          <mxGeometry relative="1" as="geometry" />
        </mxCell>
        <mxCell id="Mr5uFOOeSS0G5EtgmH-h-22" value="yes" style="edgeLabel;html=1;align=center;verticalAlign=middle;resizable=0;points=[];" vertex="1" connectable="0" parent="Mr5uFOOeSS0G5EtgmH-h-21">
          <mxGeometry x="-0.2875" y="1" relative="1" as="geometry">
            <mxPoint as="offset" />
          </mxGeometry>
        </mxCell>
        <mxCell id="Mr5uFOOeSS0G5EtgmH-h-30" value="" style="edgeStyle=orthogonalEdgeStyle;rounded=0;orthogonalLoop=1;jettySize=auto;html=1;" edge="1" parent="WIyWlLk6GJQsqaUBKTNV-1" source="Mr5uFOOeSS0G5EtgmH-h-24" target="Mr5uFOOeSS0G5EtgmH-h-29">
          <mxGeometry relative="1" as="geometry" />
        </mxCell>
        <mxCell id="Mr5uFOOeSS0G5EtgmH-h-37" value="No" style="edgeLabel;html=1;align=center;verticalAlign=middle;resizable=0;points=[];" vertex="1" connectable="0" parent="Mr5uFOOeSS0G5EtgmH-h-30">
          <mxGeometry x="-0.2438" relative="1" as="geometry">
            <mxPoint as="offset" />
          </mxGeometry>
        </mxCell>
        <mxCell id="Mr5uFOOeSS0G5EtgmH-h-24" value="iterate for&amp;nbsp;&lt;b&gt;&lt;font style=&quot;font-size: 17px;&quot;&gt;を&lt;/font&gt;&lt;/b&gt;" style="rhombus;whiteSpace=wrap;html=1;direction=south;" vertex="1" parent="WIyWlLk6GJQsqaUBKTNV-1">
          <mxGeometry x="150" y="650" width="140" height="130" as="geometry" />
        </mxCell>
        <mxCell id="Mr5uFOOeSS0G5EtgmH-h-39" value="" style="edgeStyle=orthogonalEdgeStyle;rounded=0;orthogonalLoop=1;jettySize=auto;html=1;" edge="1" parent="WIyWlLk6GJQsqaUBKTNV-1" source="Mr5uFOOeSS0G5EtgmH-h-25" target="Mr5uFOOeSS0G5EtgmH-h-38">
          <mxGeometry relative="1" as="geometry" />
        </mxCell>
        <mxCell id="Mr5uFOOeSS0G5EtgmH-h-25" value="&lt;font style=&quot;&quot;&gt;&lt;span style=&quot;font-size: 19px;&quot;&gt;returnDICT[&quot;Object&quot;] = inputSTR[&lt;/span&gt;&lt;b style=&quot;font-size: 12px;&quot;&gt;&lt;font style=&quot;font-size: 17px;&quot;&gt;が_idx+1&lt;/font&gt;&lt;/b&gt;&lt;span style=&quot;font-size: 19px;&quot;&gt;:&lt;/span&gt;&lt;b style=&quot;&quot;&gt;&lt;font style=&quot;font-size: 18px;&quot;&gt;を&lt;/font&gt;&lt;/b&gt;&lt;b style=&quot;font-size: 12px;&quot;&gt;&lt;font style=&quot;font-size: 17px;&quot;&gt;_idx&lt;/font&gt;&lt;/b&gt;&lt;span style=&quot;font-size: 19px;&quot;&gt;]&lt;/span&gt;&lt;/font&gt;" style="rounded=0;whiteSpace=wrap;html=1;" vertex="1" parent="WIyWlLk6GJQsqaUBKTNV-1">
          <mxGeometry x="-8" y="830" width="456" height="65" as="geometry" />
        </mxCell>
        <mxCell id="Mr5uFOOeSS0G5EtgmH-h-29" value="&lt;font style=&quot;font-size: 19px;&quot;&gt;&lt;b&gt;?&lt;/b&gt;&lt;/font&gt;" style="rounded=0;whiteSpace=wrap;html=1;" vertex="1" parent="WIyWlLk6GJQsqaUBKTNV-1">
          <mxGeometry x="354" y="685" width="120" height="60" as="geometry" />
        </mxCell>
        <mxCell id="Mr5uFOOeSS0G5EtgmH-h-31" value="&lt;span style=&quot;font-size: 17px;&quot;&gt;&lt;b&gt;returnDICT {&lt;/b&gt;&lt;/span&gt;&lt;div&gt;&lt;span style=&quot;font-size: 17px;&quot;&gt;&lt;b&gt;&quot;Subject&quot;:&amp;nbsp; 貓&amp;nbsp; &amp;nbsp;,&lt;/b&gt;&lt;/span&gt;&lt;/div&gt;&lt;div&gt;&lt;span style=&quot;font-size: 17px;&quot;&gt;&lt;b&gt;&quot;Object&quot;:&amp;nbsp; &amp;nbsp; &amp;nbsp;魚&amp;nbsp; &amp;nbsp; &amp;nbsp;&lt;/b&gt;&lt;/span&gt;&lt;/div&gt;&lt;div&gt;&lt;b style=&quot;font-size: 17px; background-color: transparent; color: light-dark(rgb(0, 0, 0), rgb(255, 255, 255));&quot;&gt;&lt;span style=&quot;white-space: pre;&quot;&gt;&#x9;&lt;/span&gt;&lt;span style=&quot;white-space: pre;&quot;&gt;&#x9;&lt;/span&gt;&lt;span style=&quot;white-space: pre;&quot;&gt;&#x9;&lt;/span&gt;}&lt;/b&gt;&lt;/div&gt;" style="text;whiteSpace=wrap;html=1;align=center;" vertex="1" parent="WIyWlLk6GJQsqaUBKTNV-1">
          <mxGeometry x="474" y="830" width="210" height="65" as="geometry" />
        </mxCell>
        <mxCell id="Mr5uFOOeSS0G5EtgmH-h-41" value="" style="edgeStyle=orthogonalEdgeStyle;rounded=0;orthogonalLoop=1;jettySize=auto;html=1;" edge="1" parent="WIyWlLk6GJQsqaUBKTNV-1" source="Mr5uFOOeSS0G5EtgmH-h-38" target="Mr5uFOOeSS0G5EtgmH-h-40">
          <mxGeometry relative="1" as="geometry" />
        </mxCell>
        <mxCell id="Mr5uFOOeSS0G5EtgmH-h-38" value="&lt;span style=&quot;font-size: 19px;&quot;&gt;return returnDICT&lt;/span&gt;" style="rounded=0;whiteSpace=wrap;html=1;" vertex="1" parent="WIyWlLk6GJQsqaUBKTNV-1">
          <mxGeometry x="-8" y="980" width="456" height="65" as="geometry" />
        </mxCell>
        <mxCell id="Mr5uFOOeSS0G5EtgmH-h-40" value="End" style="rounded=1;whiteSpace=wrap;html=1;fontSize=12;glass=0;strokeWidth=1;shadow=0;" vertex="1" parent="WIyWlLk6GJQsqaUBKTNV-1">
          <mxGeometry x="160" y="1129" width="120" height="40" as="geometry" />
        </mxCell>
      </root>
    </mxGraphModel>
  </diagram>
</mxfile>
